Coordinates
version=1
nRows=5
nColumns=63
inDegrees=yes

Units are S.I. units (second, meters, Newtons, ...)
If the header above contains a line with 'inDegrees', this indicates whether rotational values are in degrees (yes) or radians (no).

endheader
time	pelvis_tilt	pelvis_list	pelvis_rotation	pelvis_tx	pelvis_ty	pelvis_tz	hip_flexion_r	hip_adduction_r	hip_rotation_r	knee_angle_r	knee_angle_r_beta	ankle_angle_r	subtalar_angle_r	mtp_angle_r	hip_flexion_l	hip_adduction_l	hip_rotation_l	knee_angle_l	knee_angle_l_beta	ankle_angle_l	subtalar_angle_l	mtp_angle_l	L5_S1_Flex_Ext	L5_S1_Lat_Bending	L5_S1_axial_rotation	L4_L5_Flex_Ext	L4_L5_Lat_Bending	L4_L5_axial_rotation	L3_L4_Flex_Ext	L3_L4_Lat_Bending	L3_L4_axial_rotation	L2_L3_Flex_Ext	L2_L3_Lat_Bending	L2_L3_axial_rotation	L1_L2_Flex_Ext	L1_L2_Lat_Bending	L1_L2_axial_rotation	L1_T12_Flex_Ext	L1_T12_Lat_Bending	L1_T12_axial_rotation	Abs_r3	Abs_r2	Abs_r1	Abs_t1	Abs_t2	neck_flexion	neck_bending	neck_rotation	arm_flex_r	arm_add_r	arm_rot_r	elbow_flex_r	pro_sup_r	wrist_flex_r	wrist_dev_r	arm_flex_l	arm_add_l	arm_rot_l	elbow_flex_l	pro_sup_l	wrist_flex_l	wrist_dev_l
      3.33898305	      1.70514090	     -2.54404839	     84.29736563	      0.26722297	      0.97324341	      0.62149683	      2.35046233	     -1.85084733	     -9.36618438	     17.23702487	      0.30084284	     49.53144295	     17.47060660	      0.00000000	      1.53238619	      0.13635864	      1.02658450	     17.00933722	      0.29686894	     47.13810415	     -2.87698801	      0.00000000	     -0.14255872	      0.40497125	      0.22196589	     -0.26474580	      0.53861176	      0.23583876	     -0.23420972	      0.98464709	      0.23583876	     -0.16293036	      0.98464709	      0.19422015	     -0.13238003	      0.82581737	      0.18034729	     -0.08145805	      0.62730046	      0.16647442	     -1.01828268	      4.58111573	      1.23450769	      0.00000000	      0.00000000	      0.03514878	     -2.76650104	     19.51759967	      9.18566777	     -9.46373684	     23.61775659	    123.38840221	     29.89982508	    -22.89289075	     27.53428982	     24.04616415	    -75.79955417	    -41.93942541	    129.48310538	     88.43522412	    -21.17354659	    -16.54276560
      3.35593220	      1.54739608	     -2.71102889	     84.58786108	      0.26765161	      0.97287718	      0.62184033	      2.37354186	     -1.95480252	     -9.66725477	     17.07978722	      0.29809852	     49.26187929	     17.29614637	      0.00000000	      1.79685916	      0.15551079	      0.60375039	     17.14531448	      0.29924219	     47.15975413	     -2.05945871	      0.00000000	     -0.14010754	      0.39356318	      0.33732914	     -0.26019372	      0.52343903	      0.35841222	     -0.23018269	      0.95690953	      0.35841222	     -0.16012891	      0.95690953	      0.29516300	     -0.13010387	      0.80255404	      0.27407993	     -0.08005745	      0.60962937	      0.25299686	     -1.00077418	      4.45206545	      1.87612350	      0.00000000	      0.00000000	      0.67713139	     -3.40615057	     18.48046258	      8.28005280	     -9.57978722	     22.83696382	    123.42744704	     35.01776333	    -21.67259124	     28.31377881	     27.99904797	    -74.85912902	    -38.15787868	    129.98638604	     88.07394439	    -13.76608692	    -12.76563268
      3.37288136	      1.38314662	     -2.77761227	     84.95395456	      0.26809873	      0.97260379	      0.62249444	      2.32751301	     -2.07769619	    -10.01447208	     16.96390263	      0.29607595	     49.07315348	     17.15822912	      0.00000000	      1.99628569	      0.21236005	      0.46089447	     17.28724325	      0.30171931	     47.15029328	     -1.50567069	      0.00000000	     -0.13922399	      0.37340825	      0.39523432	     -0.25855287	      0.49663298	      0.41993646	     -0.22873109	      0.90790483	      0.41993646	     -0.15911910	      0.90790483	      0.34583003	     -0.12928340	      0.76145411	      0.32112788	     -0.07955259	      0.57840938	      0.29642574	     -0.99446303	      4.22406884	      2.19817471	      0.00000000	      0.00000000	      0.86875706	     -3.54815884	     17.86487424	      7.69674811	     -9.65828573	     22.20594585	    123.09565581	     40.90489064	    -19.98174994	     28.61677011	     33.08049194	    -73.94307441	    -32.72756763	    130.13675483	     87.80017597	     -9.48852617	     -9.74610577
      3.38983051	      1.17633479	     -2.78679394	     85.36791886	      0.26826712	      0.97253114	      0.62266323	      2.16846934	     -2.25510354	    -10.40731728	     16.75696308	      0.29246418	     48.89212425	     17.03499100	      0.00000000	      2.11685930	      0.34787237	      0.53665353	     17.43540005	      0.30430514	     47.12008540	     -1.12510084	      0.00000000	     -0.12562808	      0.35777716	      0.28247681	     -0.23330391	      0.47584362	      0.30013161	     -0.20639437	      0.86989937	      0.30013161	     -0.14358033	      0.86989937	      0.24716721	     -0.11665823	      0.72957917	      0.22951241	     -0.07178388	      0.55419681	      0.21185761	     -0.89734880	      4.04724673	      1.57105129	      0.00000000	      0.00000000	      0.48881227	     -3.74141288	     18.71817580	      7.62011398	     -9.47268811	     22.19831249	    122.20391723	     48.50787531	    -17.91540050	     28.57202000	     33.50518713	    -73.94230515	    -31.30738441	    130.41923545	     87.71457852	     -9.04551276	     -7.73878532
      3.40677966	      1.08118878	     -2.71772274	     85.67582507	      0.26849845	      0.97261211	      0.62310732	      1.99986112	     -2.32392562	    -10.68414543	     16.60463861	      0.28980561	     48.82080956	     17.02615438	      0.00000000	      2.13812038	      0.38090314	      0.64669313	     17.53218038	      0.30599427	     47.09704239	     -0.86957787	      0.00000000	     -0.11838780	      0.35244988	      0.15761624	     -0.21985799	      0.46875834	      0.16746725	     -0.19449932	      0.85694663	      0.16746725	     -0.13530542	      0.85694663	      0.13791421	     -0.10993491	      0.71871579	      0.12806319	     -0.06764679	      0.54594486	      0.11821218	     -0.84563224	      3.98698349	      0.87661424	      0.00000000	      0.00000000	     -0.18203663	     -3.62773738	     19.99716305	      7.82833046	     -9.24184888	     22.23350121	    121.20911008	     57.90581837	    -16.03447581	     28.45934295	     34.14583507	    -73.98021200	    -30.04457485	    130.57367597	     87.83342231	     -9.04346059	     -5.58473276
